<svg xmlns="http://www.w3.org/2000/svg" width="442.2" height="85.04"><path fill="#DB1A21" d="M52.234 62.063s-1.994-4.053-4.427-9.004L36.588 30.244c-2.435-4.95.089-9.003 5.608-9.003h44.29c5.52 0 12.054-4.039 14.522-8.976l1.646-3.289C105.121 4.04 102.624 0 97.107 0L7.498.002C1.979.002-.515 4.04 1.953 8.976l33.502 67.003c2.468 4.936 9.001 8.977 14.52 8.977h4.683c5.519 0 12.049-4.041 14.51-8.979L86.81 40.601c2.462-4.938-.037-8.979-5.554-8.979h-3.267c-5.519 0-12.107 4.012-14.638 8.916L52.234 62.063"/><path d="M129.782 70.144V14.092h26.265c10.661 0 15.992 4.741 15.992 14.227 0 11.158-7.696 17.941-23.086 20.346l-4.958.881 3.468-10.129c9.146-1.698 13.718-5.293 13.718-10.779 0-3.604-1.934-5.41-5.802-5.41h-15.208v46.919l-10.389-.003zm44.773 0V28.987h8.036l1.293 5.252c3.607-3.501 7.422-5.252 11.446-5.252v8.39c-3.868 0-7.329 1.737-10.387 5.211v27.556h-10.388zm20.647-20.579c0-13.981 6.925-20.971 20.775-20.971 13.85 0 20.775 6.99 20.775 20.971 0 13.954-6.926 20.932-20.775 20.932-13.799 0-20.722-6.977-20.775-20.932zm20.775 12.739c6.923 0 10.386-4.298 10.386-12.896 0-8.39-3.463-12.583-10.386-12.583-6.924 0-10.388 4.195-10.388 12.583 0 8.598 3.464 12.896 10.388 12.896zm70.484 5.254c-4.521 1.985-10.185 2.979-16.978 2.979-19.78 0-29.674-9.736-29.674-29.206 0-18.423 10.062-27.635 30.188-27.635 6.139 0 11.625.915 16.463 2.745v9.406c-4.838-2.091-10.062-3.135-15.687-3.135-13.459 0-20.188 6.206-20.188 18.618 0 13.458 6.354 20.187 19.054 20.187 1.885 0 4.022-.312 6.428-.938V44.275h10.394v23.283zm6.144 2.586V28.987h8.035l1.289 5.252c3.606-3.501 7.424-5.252 11.446-5.252v8.389c-3.867 0-7.326 1.737-10.387 5.211v27.556l-10.383.001zm63.015-41.157v41.156h-8.113l-1.256-5.25c-4.99 3.501-10.01 5.25-15.054 5.25-9.456 0-14.188-5.107-14.188-15.324V28.987H327.4v25.947c0 4.548 2.25 6.82 6.742 6.82 3.635 0 7.325-1.734 11.094-5.213V28.987h10.384zm5.737 1.685c5.459-1.123 11.496-1.685 18.11-1.685 14.502 0 21.752 6.518 21.752 19.561 0 14.396-6.635 21.599-19.911 21.599-3.293 0-6.481-.647-9.567-1.959V85.04h-10.384V30.672zm10.384 28.731c2.85 1.411 6.024 2.118 9.528 2.118 6.455 0 9.683-4.351 9.683-13.054 0-7.396-3.683-11.091-11.056-11.091-3.478 0-6.19.183-8.155.547v21.48zm31.06-2.074c0-8.443 5.961-12.664 17.877-12.664 3.582 0 6.768.262 9.564.785v-2.706c0-3.684-3.566-5.527-10.703-5.527-4.492 0-8.959.654-13.402 1.96v-8.231c4.443-1.306 8.91-1.959 13.402-1.959 14.061 0 21.094 4.521 21.094 13.563v27.593h-5.258l-4.465-2.898a23.703 23.703 0 01-11.449 2.898c-11.104.001-16.66-4.269-16.66-12.814zm17.877-4.823c-4.992 0-7.488 1.562-7.488 4.703 0 3.135 2.092 4.703 6.271 4.703 4.236 0 7.826-1.07 10.781-3.213v-5.41c-2.613-.52-5.8-.783-9.564-.783z" fill="#1C1C1B"/></svg>